<svg xmlns="http://www.w3.org/2000/svg" viewBox="0 0 160 160" fill="none">
  <rect width="160" height="160" rx="36" fill="#E7FAF3"/>
  <circle cx="80" cy="76" r="34" fill="#6C4A38"/>
  <path d="M42 160C45 123 58 112 80 112C102 112 115 123 118 160H42Z" fill="#FF5B59"/>
  <path d="M56 75C56 57.3269 66.0736 44 80 44C93.9264 44 104 57.3269 104 75V88C104 100.15 93.9264 110 80 110C66.0736 110 56 100.15 56 88V75Z" fill="#6C4A38"/>
  <path d="M59 70C59 54.536 68.402 42 80 42C91.598 42 101 54.536 101 70V74H59V70Z" fill="#6A4634"/>
  <ellipse cx="68" cy="79" rx="4.5" ry="5.5" fill="#2B1B14"/>
  <ellipse cx="92" cy="79" rx="4.5" ry="5.5" fill="#2B1B14"/>
  <path d="M74 93C77 96 83 96 86 93" stroke="#2B1B14" stroke-linecap="round" stroke-width="4"/>
  <path d="M73 84H87" stroke="#8E6247" stroke-linecap="round" stroke-width="4"/>
  <path d="M61 116C67 120 73 122 80 122C87 122 93 120 99 116V160H61V116Z" fill="#FF5B59"/>
</svg>
