<svg xmlns="http://www.w3.org/2000/svg" viewBox="0 0 512 512" role="img" aria-labelledby="cat-title cat-desc">
  <title id="cat-title">Cat</title>
  <desc id="cat-desc">Simple cat flashcard illustration with label.</desc>
  <rect width="512" height="512" rx="48" fill="#FFF6EE" />
  <path d="M160 168l52 44h88l52-44 24 76c13 43 2 89-29 122l-24 26H189l-24-26c-31-33-42-79-29-122l24-76Z" fill="#F0A45A" />
  <path d="M212 212l-34-66 74 42M300 188l74-42-34 66" fill="#F0A45A" />
  <circle cx="220" cy="258" r="12" fill="#1D1D1F" />
  <circle cx="292" cy="258" r="12" fill="#1D1D1F" />
  <path d="M256 276l-14 18h28l-14-18Z" fill="#D56C7A" />
  <path d="M214 308c24 20 60 20 84 0" fill="none" stroke="#1D1D1F" stroke-width="10" stroke-linecap="round" />
  <text x="256" y="438" text-anchor="middle" font-family="Arial, sans-serif" font-size="42" font-weight="700" fill="#1D1D1F">CAT</text>
</svg>
